<svg id="Calque_1" data-name="Calque 1" xmlns="http://www.w3.org/2000/svg" viewBox="0 0 557.95 275.82"><defs><style>.cls-1{stroke:#000;stroke-linecap:square;stroke-miterlimit:10;stroke-width:0;}</style></defs><title>_LogoTIM</title><polygon class="cls-1" points="238.46 275.82 238.46 70.59 161.19 70.59 161.19 275.82 76.76 275.82 76.76 70.59 0 70.59 0 0 155.91 0 156.42 6.7 157.78 13.05 160 19.06 163.07 24.73 166.82 29.71 171.26 34.18 176.2 38.13 181.83 41.05 187.8 43.45 194.11 44.83 200.77 45.34 207.42 44.83 213.73 43.45 219.7 41.22 225.16 38.13 230.1 34.18 234.54 29.71 238.46 24.73 241.53 19.23 243.75 13.22 245.12 6.87 245.63 0.17 358.72 0 397.78 162.3 398.63 162.3 437.69 0 557.95 0 557.95 275.82 478.12 275.82 478.12 98.92 477.27 98.92 429.68 275.82 366.74 275.82 319.14 98.92 318.29 98.92 318.29 275.82 238.46 275.82 238.46 275.82"/></svg>